<svg height="60" width="120" xmlns="http://www.w3.org/2000/svg"><g fill="#e82127"><path d="m266.6 403.28v21.912h7.027v-14.6h25.575v14.6h7.022v-21.874zm6.245-7.088h27.02c3.753-.746 6.544-4.058 7.33-7.262h-41.68c.78 3.205 3.6 6.516 7.33 7.262m-27.525 29.014c3.543-1.502 5.45-4.1 6.18-7.14h-31.52l.02-29.118-7.065.02v36.238h32.383m-84.92-29.112h24.954c3.762-1.093 6.92-3.96 7.7-7.136h-39.64v21.415h32.444v7.515l-25.45.02c-3.988 1.112-7.37 3.8-9.057 7.327l2.062-.038h39.415v-21.944h-32.42v-7.16m-61.61.07h27c3.758-.75 6.55-4.058 7.334-7.265h-41.67c.778 3.207 3.612 6.516 7.334 7.265m.001 14.322h27c3.758-.74 6.55-4.053 7.334-7.262h-41.669c.778 3.2 3.612 6.52 7.334 7.262m.001 14.717h27c3.758-.747 6.55-4.058 7.334-7.263h-41.669c.778 3.206 3.612 6.516 7.334 7.263m-70.27-36.216c.812 3.167 3.554 6.404 7.316 7.215h11.36l.58.23v28.7h7.1v-28.7l.645-.23h11.38c3.804-.98 6.487-4.048 7.285-7.215v-.07h-45.666z" transform="matrix(.274507 0 0 .274507 28.753241 -77.742693)"/><path d="m23.282 46.3 4.578-25.745c4.363 0 5.74.478 5.938 2.43 0 0 2.927-1.1 4.403-3.308-5.76-2.67-11.55-2.8-11.55-2.8l-3.378 4.114h.008l-3.378-4.114s-5.8.12-11.55 2.8c1.475 2.217 4.403 3.308 4.403 3.308.2-1.953 1.574-2.432 5.9-2.435l4.624 25.75m-.001-30.6c4.657-.036 9.987.72 15.444 3.1.73-1.313.917-1.893.917-1.893-5.965-2.36-11.55-3.168-16.36-3.188-4.8.02-10.396.828-16.36 3.188 0 0 .266.715.916 1.893 5.456-2.378 10.787-3.134 15.444-3.1"/></g></svg>